<svg width="200" height="200" viewBox="0 0 200 200" fill="none" xmlns="http://www.w3.org/2000/svg">
<g clip-path="url(#clip0_1_595)">
<path d="M35.4167 1.61203e-05H164.583C169.236 -0.00448106 173.843 0.932018 178.142 2.75592C182.441 4.57981 186.347 7.25531 189.636 10.6293C192.926 14.0032 195.535 18.0094 197.313 22.4186C199.091 26.8277 200.004 31.5533 200 36.3248V163.675C200.004 168.447 199.091 173.172 197.313 177.581C195.535 181.991 192.926 185.997 189.636 189.371C186.347 192.745 182.441 195.42 178.142 197.244C173.843 199.068 169.236 200.004 164.583 200H35.4167C30.7645 200.004 26.1571 199.068 21.8581 197.244C17.5592 195.42 13.6532 192.745 10.3635 189.371C7.07392 185.997 4.46532 181.991 2.68702 177.581C0.908718 173.172 -0.00436903 168.447 1.57173e-05 163.675V36.3248C-0.00436903 31.5533 0.908718 26.8277 2.68702 22.4186C4.46532 18.0094 7.07392 14.0032 10.3635 10.6293C13.6532 7.25531 17.5592 4.57981 21.8581 2.75592C26.1571 0.932018 30.7645 -0.00448106 35.4167 1.61203e-05Z" fill="#000B1D"/>
<path d="M170.168 140.686C171.298 138.729 172 136.524 172 134.544V65.8052C172 63.825 171.299 61.6203 170.168 59.6631L100 100.175L170.168 140.686Z" fill="#00599C"/>
<path d="M106.235 179.712L165.765 145.343C167.48 144.353 169.038 142.644 170.168 140.686L100 100.175L29.832 140.687C30.9619 142.644 32.5209 144.354 34.2353 145.343L93.7647 179.712C97.1939 181.693 102.806 181.693 106.235 179.712Z" fill="#004482"/>
<path d="M170.168 59.6627C169.038 57.705 167.479 55.9954 165.765 55.0052L106.235 20.6363C102.806 18.6561 97.1939 18.6561 93.7647 20.6363L34.2353 55.0052C30.8056 56.985 28 61.8452 28 65.8052V134.544C28 136.524 28.7016 138.729 29.832 140.686L100 100.175L170.168 59.6627Z" fill="#659AD2"/>
<path d="M100 148.175C73.5327 148.175 52 126.642 52 100.175C52 73.7073 73.5327 52.1746 100 52.1746C117.079 52.1746 133.007 61.3651 141.568 76.1595L120.794 88.1802C116.51 80.775 108.541 76.1746 100 76.1746C86.7661 76.1746 76 86.9407 76 100.175C76 113.408 86.7661 124.175 100 124.175C108.542 124.175 116.511 119.574 120.796 112.168L141.569 124.188C133.008 138.984 117.08 148.175 100 148.175Z" fill="white"/>
<path d="M148 97.5077H142.666V92.1746H137.334V97.5077H132V102.841H137.334V108.175H142.666V102.841H148V97.5077Z" fill="white"/>
<path d="M168 97.5077H162.666V92.1746H157.334V97.5077H152V102.841H157.334V108.175H162.666V102.841H168V97.5077Z" fill="white"/>
</g>
<defs>
<clipPath id="clip0_1_595">
<rect width="200" height="200" fill="white"/>
</clipPath>
</defs>
</svg>
