<svg width="200" height="200" viewBox="0 0 200 200" fill="none" xmlns="http://www.w3.org/2000/svg">
<g clip-path="url(#clip0_1_653)">
<path d="M35.4167 1.61203e-05H164.583C169.236 -0.00448106 173.843 0.932018 178.142 2.75592C182.441 4.57981 186.347 7.25531 189.636 10.6293C192.926 14.0032 195.535 18.0094 197.313 22.4186C199.091 26.8277 200.004 31.5533 200 36.3248V163.675C200.004 168.447 199.091 173.172 197.313 177.581C195.535 181.991 192.926 185.997 189.636 189.371C186.347 192.745 182.441 195.42 178.142 197.244C173.843 199.068 169.236 200.004 164.583 200H35.4167C30.7645 200.004 26.1571 199.068 21.8581 197.244C17.5592 195.42 13.6532 192.745 10.3635 189.371C7.07392 185.997 4.46532 181.991 2.68702 177.581C0.908718 173.172 -0.00436903 168.447 1.57173e-05 163.675V36.3248C-0.00436903 31.5533 0.908718 26.8277 2.68702 22.4186C4.46532 18.0094 7.07392 14.0032 10.3635 10.6293C13.6532 7.25531 17.5592 4.57981 21.8581 2.75592C26.1571 0.932018 30.7645 -0.00448106 35.4167 1.61203e-05Z" fill="#000B1D"/>
<path d="M166.993 68.9771C166.992 66.4447 166.451 64.207 165.355 62.2871C164.279 60.398 162.668 58.8152 160.507 57.5637C142.668 47.2776 124.812 37.0229 106.978 26.7263C102.171 23.9507 97.5091 24.0524 92.7369 26.8679C85.6364 31.0549 50.0867 51.4221 39.4934 57.5579C35.1307 60.084 33.0078 63.9491 33.0068 68.9723C33 89.6583 33.0068 110.344 33 131.03C33 133.507 33.5196 135.702 34.5666 137.593C35.6429 139.539 37.2766 141.165 39.4876 142.445C50.0815 148.581 85.6359 168.946 92.7349 173.135C97.5091 175.952 102.171 176.052 106.98 173.276C124.814 162.979 142.671 152.725 160.513 142.438C162.724 141.159 164.358 139.532 165.434 137.588C166.479 135.696 167 133.502 167 131.025C167 131.025 167 89.6636 166.993 68.9771Z" fill="#A179DC"/>
<path d="M100.205 99.7996L34.5665 137.593C35.6428 139.538 37.2765 141.165 39.4875 142.445C50.0814 148.58 85.6358 168.946 92.7347 173.135C97.509 175.952 102.17 176.052 106.98 173.276C124.814 162.979 142.671 152.724 160.513 142.438C162.724 141.159 164.357 139.532 165.434 137.588L100.205 99.7996Z" fill="#280068"/>
<path d="M166.993 68.9769C166.992 66.4445 166.45 64.2068 165.355 62.2869L100.205 99.8001L165.434 137.587C166.479 135.696 166.999 133.502 167 131.024C167 131.024 167 89.6634 166.993 68.9769Z" fill="#390091"/>
<path d="M100.349 50.1939C118.775 50.1939 134.862 60.2006 143.479 75.0748L143.395 74.9316L121.715 87.414C117.444 80.1824 109.615 75.3018 100.632 75.2011L100.349 75.1995C86.6515 75.1995 75.547 86.3041 75.547 100.001C75.5425 104.318 76.6704 108.561 78.8181 112.306C83.0932 119.77 91.1301 124.803 100.349 124.803C109.626 124.803 117.708 119.706 121.961 112.163L121.858 112.344L143.504 124.884C134.982 139.632 119.115 149.608 100.904 149.807L100.349 149.81C81.8653 149.81 65.7327 139.741 57.1375 124.788C52.9416 117.489 50.5408 109.026 50.5408 100.001C50.5408 72.4937 72.8401 50.1934 100.349 50.1934L100.349 50.1939Z" fill="white"/>
</g>
<defs>
<clipPath id="clip0_1_653">
<rect width="200" height="200" fill="white"/>
</clipPath>
</defs>
</svg>
