<svg width="200" height="200" viewBox="0 0 200 200" fill="none" xmlns="http://www.w3.org/2000/svg">
<g clip-path="url(#clip0_1_427)">
<path d="M35.4167 1.61203e-05H164.583C169.236 -0.00448106 173.843 0.932018 178.142 2.75592C182.441 4.57981 186.347 7.25531 189.636 10.6293C192.926 14.0032 195.535 18.0094 197.313 22.4186C199.091 26.8277 200.004 31.5533 200 36.3248V163.675C200.004 168.447 199.091 173.172 197.313 177.581C195.535 181.991 192.926 185.997 189.636 189.371C186.347 192.745 182.441 195.42 178.142 197.244C173.843 199.068 169.236 200.004 164.583 200H35.4167C30.7645 200.004 26.157 199.068 21.8581 197.244C17.5592 195.42 13.6532 192.745 10.3635 189.371C7.07392 185.997 4.46532 181.991 2.68702 177.581C0.908717 173.172 -0.00436903 168.447 1.57173e-05 163.675V36.3248C-0.00436903 31.5533 0.908717 26.8277 2.68702 22.4186C4.46532 18.0094 7.07392 14.0032 10.3635 10.6293C13.6532 7.25531 17.5592 4.57981 21.8581 2.75592C26.157 0.932018 30.7645 -0.00448106 35.4167 1.61203e-05Z" fill="#F0F0F0"/>
<path d="M155.163 52.5586L145.127 164.988L100.014 177.495L55.0257 165.006L45 52.5586H155.163Z" fill="#E44D26"/>
<path d="M100.081 167.935L136.535 157.829L145.111 61.7524H100.081V167.935Z" fill="#F16529"/>
<path d="M80.5715 89.3351H100.081V75.5439H65.4996L65.8295 79.2438L69.2193 117.249H100.081V103.457H81.832L80.5715 89.3351ZM83.6798 124.144H69.8355L71.7675 145.799L100.018 153.641L100.081 153.623V139.275L100.021 139.291L84.6618 135.143L83.6798 124.144Z" fill="#EBEBEB"/>
<path d="M55.2493 22H62.2578V28.9243H68.6691V22H75.6781V42.9685H68.6695V35.9471H62.2583V42.9685H55.2497V22H55.2493ZM84.8941 28.9537H78.725V22H98.0768V28.9537H91.9039V42.9685H84.8953V28.9537H84.8949H84.8941ZM101.148 22H108.456L112.951 29.3678L117.442 22H124.753V42.9685H117.773V32.5754L112.951 40.0308H112.83L108.005 32.5754V42.9685H101.148V22ZM128.241 22H135.251V36.0377H145.107V42.9685H128.24V22H128.241Z" fill="black"/>
<path d="M100.034 117.249H117.016L115.415 135.135L100.033 139.286V153.634L128.306 145.799L128.514 143.469L131.755 107.161L132.091 103.457H100.034V117.249ZM100.034 89.3014V89.3351H133.346L133.622 86.2355L134.251 79.2438L134.581 75.5439H100.034V89.3019V89.3014Z" fill="white"/>
</g>
<defs>
<clipPath id="clip0_1_427">
<rect width="200" height="200" fill="white"/>
</clipPath>
</defs>
</svg>
